<?xml version="1.0" encoding="utf-8"?>
<!-- Generator: Adobe Illustrator 16.0.0, SVG Export Plug-In . SVG Version: 6.00 Build 0)  -->
<!DOCTYPE svg PUBLIC "-//W3C//DTD SVG 1.1//EN" "http://www.w3.org/Graphics/SVG/1.1/DTD/svg11.dtd">
<svg version="1.1" id="Layer_1" xmlns="http://www.w3.org/2000/svg" xmlns:xlink="http://www.w3.org/1999/xlink" x="0px" y="0px"
	 width="167.244px" height="45.992px" viewBox="-43.622 -11.997 167.244 45.992"
	 enable-background="new -43.622 -11.997 167.244 45.992" xml:space="preserve">
<g>
	<path fill-rule="evenodd" clip-rule="evenodd" fill="#01A652" d="M-7.809-10.938c0.064,0.022,0.128,0.053,0.193,0.067
		c1.241,0.236,2.144,1.348,2.149,2.647C-5.46-6.98-6.385-5.8-7.597-5.592c-1.757,0.303-2.882-0.756-3.18-2.05
		c-0.349-1.518,0.536-2.876,2.051-3.216c0.075-0.018,0.148-0.051,0.219-0.08C-8.273-10.938-8.042-10.938-7.809-10.938z"/>
	<path fill-rule="evenodd" clip-rule="evenodd" fill="#01A652" d="M-17.489-10.938c0.146,0.044,0.294,0.084,0.44,0.126
		c1.3,0.374,2.103,1.656,1.895,3.039c-0.188,1.264-1.308,2.173-2.607,2.222c-1.585,0.064-2.599-1.198-2.711-2.334
		c-0.148-1.514,0.704-2.686,2.183-2.995c0.037-0.009,0.07-0.037,0.104-0.058C-17.952-10.938-17.722-10.938-17.489-10.938z"/>
	<path fill-rule="evenodd" clip-rule="evenodd" fill="#01A651" d="M-12.954,6.248c-4.561,0.013-8.586-1.511-12.157-4.283
		c-1.202-0.937-2.305-1.978-3.213-3.209c-0.169-0.228-0.329-0.468-0.461-0.716c-0.417-0.783-0.223-1.489,0.311-2.134
		c0.505-0.611,1.274-0.82,2.029-0.574c0.503,0.166,0.833,0.55,1.17,0.933c0.582,0.664,1.151,1.347,1.78,1.968
		c2.241,2.201,4.987,3.382,8.041,3.933c1.803,0.328,3.583,0.228,5.375-0.087c3.825-0.676,6.877-2.626,9.334-5.581
		c0.095-0.112,0.201-0.218,0.282-0.342c0.548-0.821,1.827-0.843,2.509-0.422c0.799,0.495,1.121,1.474,0.738,2.377
		C2.669-1.623,2.508-1.368,2.328-1.143c-2.79,3.504-6.389,5.748-10.716,6.844C-9.886,6.083-11.41,6.244-12.954,6.248z"/>
	<path fill-rule="evenodd" clip-rule="evenodd" fill="#EC1D25" d="M5.484,4.42c0.925-0.045,1.533,0.398,1.887,1.211
		c0.332,0.762,0.21,1.465-0.354,2.079C6.616,8.146,6.071,8.275,5.51,8.36C3.547,8.652,1.655,9.2-0.045,10.236
		c-3.116,1.892-5.431,4.465-6.734,7.933c-0.706,1.874-1.073,3.786-1.077,5.77c-0.005,2.093,0.505,4.083,1.279,6.013
		c0.291,0.732,0.18,1.36-0.262,1.964c-0.651,0.885-1.929,1.023-2.729,0.271c-0.282-0.26-0.521-0.616-0.675-0.975
		c-1.232-2.897-1.72-5.937-1.399-9.049C-10.889,14.941-7.289,9.614-0.793,6.3C1.01,5.384,2.91,4.746,4.922,4.477
		C5.109,4.451,5.297,4.439,5.484,4.42z"/>
	<path fill-rule="evenodd" clip-rule="evenodd" fill="#FEC101" d="M-15.201,23.261c-0.005,2.57-0.452,5.051-1.452,7.423
		c-0.303,0.718-0.756,1.276-1.558,1.43c-0.691,0.137-1.311-0.058-1.765-0.602c-0.46-0.544-0.708-1.171-0.42-1.896
		c0.574-1.465,1.04-2.959,1.227-4.526c0.249-2.144,0.099-4.256-0.571-6.304c-0.524-1.608-1.155-3.164-2.176-4.539
		c-2.497-3.375-5.737-5.563-9.899-6.307c-0.394-0.069-0.794-0.119-1.18-0.217c-0.773-0.197-1.284-0.694-1.426-1.48
		c-0.145-0.794,0.167-1.461,0.766-1.969c0.519-0.44,1.165-0.414,1.782-0.317c7.947,1.253,14.791,7.155,16.344,15.789
		c0.209,1.156,0.279,2.334,0.414,3.504C-15.144,23.251-15.171,23.258-15.201,23.261z"/>
	<path fill-rule="evenodd" clip-rule="evenodd" fill="#EC1D25" d="M5.79,19.763c-1.492,0-2.716-1.202-2.708-2.678
		c0.008-1.188,0.921-2.714,2.677-2.712c1.478,0.005,2.736,1.229,2.738,2.668C8.498,18.542,7.281,19.763,5.79,19.763z"/>
	<path fill-rule="evenodd" clip-rule="evenodd" fill="#FEC201" d="M-30.003,16.563c0,1.49-1.196,2.682-2.691,2.686
		c-1.497,0.002-2.703-1.202-2.705-2.711c-0.002-1.468,1.241-2.667,2.749-2.676C-30.944,13.854-29.989,15.39-30.003,16.563z"/>
	<path fill-rule="evenodd" clip-rule="evenodd" fill="#EC1D25" d="M1.069,28.172c-1.515,0.003-2.749-1.214-2.728-2.721
		c0.018-1.239,0.983-2.651,2.7-2.657c1.456-0.008,2.707,1.201,2.716,2.612C3.764,26.939,2.57,28.172,1.069,28.172z"/>
	<path fill-rule="evenodd" clip-rule="evenodd" fill="#FEC201" d="M-25.26,24.931c-0.002,1.532-1.202,2.734-2.732,2.729
		c-1.491-0.007-2.661-1.214-2.661-2.758c-0.006-1.426,1.225-2.612,2.695-2.62C-26.268,22.268-25.264,23.709-25.26,24.931z"/>
</g>
<g>
	<path fill-rule="evenodd" clip-rule="evenodd" fill="#414142" d="M113.523,11.312c-1.271,2.758-3.51,4.38-6.303,5.326
		c-0.699,0.235-1.439,0.178-2.16-0.009c-1.107-0.282-1.797-1.109-1.893-2.246c-0.074-0.982,0.075-1.929,0.387-2.854
		c0.348-1.034,0.717-2.061,1.073-3.094c0.11-0.329,0.251-0.663,0.284-1.004c0.028-0.273,0.013-0.7-0.153-0.808
		c-0.221-0.144-0.637-0.14-0.904-0.035c-0.302,0.121-0.569,0.388-0.801,0.643c-0.857,0.97-1.297,2.157-1.621,3.379
		c-0.414,1.552-0.777,3.125-1.111,4.693c-0.157,0.764-0.471,1.366-1.263,1.565c-0.802,0.199-1.535-0.039-2.031-0.687
		c-0.311-0.406-0.465-0.937-0.676-1.413c-0.053-0.131-0.053-0.277-0.09-0.462c-0.147,0.112-0.268,0.204-0.384,0.294
		c-1.603,1.148-3.362,1.905-5.342,2.068c-2.311,0.188-4.903-0.379-6.512-3.131c-0.119,0.158-0.205,0.301-0.319,0.423
		c-0.773,0.841-1.674,1.519-2.669,2.087c-1.329,0.762-2.714,0.833-4.136,0.342c-1.391-0.48-2.107-1.619-1.788-3.058
		c0.297-1.278,0.761-2.517,1.157-3.768c0.155-0.479,0.339-0.949,0.492-1.428c0.064-0.197,0.121-0.406,0.143-0.61
		c0.057-0.646-0.15-0.789-0.753-0.585c-0.911,0.306-1.565,0.897-2.02,1.733c-0.859,1.586-1.305,3.298-1.595,5.063
		c-0.117,0.703-0.218,1.412-0.325,2.121c-0.068,0.432-0.314,0.702-0.761,0.773c-0.897,0.154-1.771,0.048-2.593-0.294
		c-0.64-0.271-0.929-0.819-0.921-1.521c0.016-1.154,0.358-2.229,0.685-3.316c0.383-1.261,0.785-2.512,1.159-3.775
		c0.069-0.23,0.053-0.489,0.071-0.738c-0.815-0.261-1.447,0.002-1.992,0.524c-0.794,0.757-1.267,1.73-1.54,2.758
		c-0.456,1.715-0.812,3.458-1.189,5.195c-0.162,0.744-0.41,0.99-1.183,1.052c-1.451,0.112-2.493-0.668-2.802-2.093
		c-0.244-1.14-0.146-2.287-0.056-3.433c0.157-1.974,0.419-3.933,1.103-5.803c0.27-0.746,0.636-1.461,1.006-2.166
		c0.475-0.91,1.221-1.332,2.261-1.063c0.565,0.147,1.14,0.292,1.669,0.533c0.553,0.25,0.64,0.675,0.382,1.222
		c-0.27,0.576-0.526,1.158-0.787,1.736c0.042,0.027,0.087,0.054,0.132,0.08c0.129-0.14,0.257-0.274,0.388-0.409
		c1.049-1.065,2.197-1.986,3.684-2.317c0.547-0.122,1.15-0.127,1.7-0.036c1.127,0.188,1.701,0.89,1.877,2.146
		c0.33-0.263,0.629-0.528,0.956-0.764c0.904-0.665,1.812-1.313,2.985-1.453c2.07-0.246,3.492,1.174,3.105,3.235
		c-0.183,1.023-0.577,2.01-0.899,3.006c-0.349,1.105-0.727,2.201-1.081,3.303c-0.04,0.115-0.033,0.248-0.04,0.374
		c-0.011,0.942,0.524,1.291,1.365,0.843c0.414-0.223,0.77-0.562,1.126-0.863c0.205-0.17,0.359-0.397,0.548-0.585
		c0.65-0.629,0.897-1.348,0.938-2.294c0.186-4.371,3.047-7.017,7.112-7.234c0.796-0.041,1.606,0.007,2.38,0.155
		c2.336,0.444,3.126,2.943,2.271,4.759c-0.483,1.019-1.232,1.791-2.187,2.384c-1.233,0.773-2.587,1.189-4.037,1.289
		c-0.222,0.017-0.441,0.029-0.66,0.045c0.108,2.014,1.335,2.769,3.028,2.618c2.134-0.186,3.705-1.397,5.074-2.934
		c0.072-0.082,0.093-0.227,0.118-0.347c0.623-2.973,1.204-5.953,1.864-8.919c0.417-1.886,0.956-3.75,1.859-5.468
		c0.354-0.675,0.808-1.314,1.295-1.902c0.542-0.647,1.277-0.896,2.074-0.519c0.719,0.334,1.427,0.716,2.063,1.18
		c0.679,0.489,0.917,1.524,0.191,2.373c-1.185,1.384-1.836,3.063-2.447,4.751c-0.319,0.893-0.604,1.797-0.908,2.694
		c0.033,0.024,0.069,0.047,0.102,0.072c0.121-0.097,0.242-0.193,0.365-0.288c1.213-0.969,2.534-1.648,4.149-1.533
		c1.358,0.098,2.378,0.84,2.483,1.965c0.055,0.637-0.008,1.333-0.207,1.938c-0.496,1.53-1.124,3.016-1.642,4.539
		c-0.181,0.53-0.252,1.117-0.283,1.682c-0.029,0.507,0.246,0.677,0.738,0.518c0.844-0.271,1.539-0.786,2.164-1.403
		c0.53-0.523,1.01-1.089,1.528-1.621c0.515-0.526,1.238-0.326,1.452,0.375c0.013,0.034,0.048,0.061,0.072,0.087
		C113.523,11.087,113.523,11.199,113.523,11.312z M88.202,9.112c1.334,0.056,2.353-0.429,3.126-1.452
		c0.435-0.579,0.675-1.221,0.564-1.961c-0.098-0.65-0.499-0.975-1.146-0.863c-0.251,0.045-0.516,0.16-0.715,0.32
		C88.804,6.164,88.38,7.557,88.202,9.112z M102.621,4.792l0.016-0.022l-0.019-0.004L102.621,4.792z"/>
	<path fill-rule="evenodd" clip-rule="evenodd" fill="#414142" d="M20.007,7.187c0.113-0.612,0.194-1.232,0.343-1.833
		C21.835-0.584,25.383-4.71,31.172-6.793c1.467-0.531,3.015-0.639,4.525-0.008c0.116,0.045,0.24,0.086,0.342,0.158
		c0.211,0.142,0.379,0.126,0.604-0.011c0.839-0.5,1.75-0.399,2.659-0.26c3.435,0.517,5.232,2.765,6.202,5.876
		c1.004,3.227,0.783,6.413-0.357,9.565c-0.037,0.12-0.078,0.233-0.119,0.351c0.847,0.622,1.8,0.784,2.797,0.744
		c0.115-0.003,0.234-0.073,0.333-0.138c1.206-0.792,3.069-0.36,3.813,0.885c0.439,0.746,0.23,1.618-0.511,2.086
		c-0.139,0.091-0.295,0.16-0.438,0.247c-0.444,0.258-0.475,0.581-0.104,0.939c0.671,0.646,2.784,0.645,3.438-0.007
		c0.584-0.579,0.656-1.541,0.072-2.262c-0.505-0.617-1.105-1.156-1.662-1.724c-0.643-0.652-1.323-1.261-1.911-1.953
		c-1.25-1.464-1.018-3.411,0.507-4.597c0.89-0.688,1.904-1.062,3.026-1.132c1.388-0.084,2.746,0.038,4.015,0.663
		c0.788,0.389,1.39,0.943,1.622,1.826c0.24,0.922-0.3,1.938-1.186,2.234c-0.539,0.177-1.052,0.103-1.424-0.339
		c-0.445-0.538-0.837-1.119-1.237-1.69c-0.236-0.335-0.519-0.53-0.945-0.512c-0.897,0.036-1.342,0.683-0.897,1.454
		c0.326,0.576,0.775,1.096,1.247,1.569c0.82,0.823,1.713,1.584,2.552,2.381c0.36,0.338,0.683,0.706,1.029,1.053
		c0.746,0.757,0.818,1.658,0.521,2.616c-0.43,1.38-1.391,2.293-2.675,2.851c-2.33,1.016-4.727,1.051-7.089,0.181
		c-1.53-0.557-2.571-1.682-2.961-3.301c-0.072-0.28-0.236-0.263-0.428-0.28c-1.153-0.101-2.265-0.347-3.353-0.858
		c-0.116,0.146-0.232,0.298-0.359,0.445c-3.313,3.891-7.526,5.954-12.636,5.835c-3.959-0.093-7.116-1.829-9.093-5.391
		c-0.608-1.096-0.867-2.299-0.998-3.534c-0.01-0.1-0.056-0.199-0.086-0.3C20.007,8.308,20.007,7.747,20.007,7.187z M35.02-4.829
		c-1.632-0.056-3.177,0.41-4.472,1.522c-4.069,3.49-5.748,7.944-4.934,13.215c0.635,4.123,4.548,6.198,8.362,4.584
		c2.351-0.99,3.949-2.794,5.146-4.99c0.051-0.095-0.016-0.307-0.098-0.411c-0.38-0.484-0.82-0.925-1.173-1.429
		C35.222,3.886,34.348-0.288,35.02-4.829z M40.733,5.447c0.104-0.31,0.18-0.5,0.231-0.702c0.483-1.82,0.489-3.658,0.053-5.48
		c-0.132-0.544-0.475-1.06-0.81-1.529c-0.287-0.406-0.789-0.534-1.248-0.365c-0.423,0.157-0.509,0.603-0.525,1.021
		c-0.082,2.273,0.527,4.363,1.688,6.305C40.268,4.939,40.48,5.146,40.733,5.447z"/>
	<path fill-rule="evenodd" clip-rule="evenodd" fill="#858586" d="M46.431,31.925c0.001,0.036,0.005,0.063,0.007,0.091
		c-0.759,0-1.515,0-2.271,0c0.014-0.031,0.022-0.064,0.04-0.098C44.948,31.923,45.688,31.923,46.431,31.925z"/>
	<path fill-rule="evenodd" clip-rule="evenodd" fill="#414142" d="M75.963,28.793c0-1.508,0.007-2.981,0-4.455
		c-0.003-0.436-0.026-0.87-0.066-1.299c-0.055-0.659-0.445-1.009-1.104-1.015c-0.904-0.015-1.6,0.583-1.66,1.552
		c-0.074,1.085-0.066,2.187-0.085,3.274c-0.008,0.645-0.004,1.287-0.004,1.951c-0.763,0-1.496,0-2.25,0c0-2.766,0-5.507,0-8.27
		c0.688,0,1.354,0,2.054,0c0,0.334,0,0.665,0,1.121c0.755-0.832,1.591-1.291,2.619-1.312c1.048-0.022,1.917,0.329,2.488,1.289
		c0.169-0.162,0.304-0.298,0.453-0.427c0.961-0.864,2.082-1.069,3.292-0.702c1.013,0.313,1.616,1.06,1.645,2.11
		c0.051,2.059,0.013,4.116,0.013,6.195c-0.727,0-1.45,0-2.239,0c0-0.146,0-0.289,0-0.444c0-1.498,0-2.999-0.004-4.5
		c0-0.236-0.029-0.477-0.047-0.711c-0.044-0.475-0.193-0.896-0.688-1.052c-0.566-0.177-1.091-0.063-1.525,0.345
		c-0.475,0.451-0.575,1.051-0.589,1.66c-0.027,1.446-0.019,2.891-0.024,4.334c-0.003,0.11-0.003,0.22-0.003,0.354
		C77.475,28.793,76.737,28.793,75.963,28.793z"/>
	<path fill-rule="evenodd" clip-rule="evenodd" fill="#414142" d="M46.431,31.925c-0.742-0.002-1.482-0.002-2.225-0.007
		c-0.009-0.473-0.021-0.952-0.021-1.429c-0.002-3.156-0.002-6.31-0.002-9.459c0-0.158,0-0.31,0-0.489c0.711,0,1.39,0,2.12,0
		c0,0.342,0,0.682,0,1.031c0.077-0.007,0.111,0,0.127-0.015c0.904-1.067,2.063-1.43,3.398-1.107c1.347,0.323,2.16,1.248,2.532,2.552
		c0.342,1.219,0.315,2.444-0.113,3.639c-0.639,1.767-2.419,2.761-4.115,2.241c-0.522-0.163-0.973-0.572-1.456-0.872
		c-0.057-0.035-0.104-0.079-0.246-0.184C46.431,29.256,46.431,30.591,46.431,31.925z M50.308,24.6
		c-0.104-0.447-0.155-0.988-0.355-1.467c-0.266-0.655-0.795-1.038-1.534-1.049c-0.76-0.016-1.354,0.313-1.66,0.994
		c-0.489,1.098-0.457,2.223,0.105,3.28c0.347,0.654,0.967,0.964,1.721,0.89c0.768-0.074,1.259-0.532,1.476-1.247
		C50.185,25.58,50.217,25.13,50.308,24.6z"/>
	<path fill-rule="evenodd" clip-rule="evenodd" fill="#424243" d="M32.106,23.055c-0.645-0.113-1.305-0.229-2.007-0.352
		c0.301-1.043,0.864-1.817,1.908-2.116c1.252-0.368,2.53-0.354,3.777,0c0.905,0.252,1.505,0.855,1.572,1.853
		c0.04,0.6,0.05,1.201,0.069,1.801c0.048,1.527-0.27,3.09,0.487,4.581c-0.72,0-1.376,0.012-2.031-0.009
		c-0.102-0.003-0.24-0.115-0.289-0.21c-0.096-0.195-0.142-0.415-0.178-0.528c-0.673,0.293-1.308,0.654-1.991,0.852
		c-0.677,0.197-1.391,0.118-2.058-0.156c-0.973-0.394-1.518-1.221-1.509-2.259c0.011-0.987,0.549-1.812,1.539-2.134
		c0.9-0.291,1.844-0.459,2.768-0.678c0.135-0.034,0.283-0.043,0.405-0.106c0.218-0.112,0.606,0.026,0.61-0.409
		c0.008-0.56-0.202-0.912-0.646-1.059C33.479,21.787,32.722,22.073,32.106,23.055z M35.139,24.856
		c-0.771,0.196-1.546,0.382-2.307,0.592c-0.392,0.113-0.656,0.393-0.693,0.816c-0.037,0.424,0.159,0.758,0.517,0.989
		c0.858,0.552,2.316-0.061,2.474-1.068C35.196,25.768,35.139,25.324,35.139,24.856z"/>
	<path fill-rule="evenodd" clip-rule="evenodd" fill="#424243" d="M65.27,29.008c-2.594-0.008-4.179-1.051-4.72-2.802
		c-0.331-1.063-0.358-2.147,0.063-3.211c0.713-1.801,2.131-2.606,3.999-2.648c3.82-0.094,5.452,3.484,4.119,6.282
		C67.953,28.255,66.54,28.995,65.27,29.008z M62.602,24.63c0.021,0.006,0.036,0.009,0.053,0.011
		c0.016,0.194,0.016,0.395,0.031,0.588c0.116,1.062,0.805,1.822,1.766,1.97c0.899,0.146,1.787-0.338,2.137-1.207
		c0.352-0.878,0.354-1.787-0.015-2.662c-0.335-0.798-0.983-1.208-1.853-1.198c-0.866,0.015-1.507,0.442-1.83,1.238
		C62.732,23.77,62.695,24.208,62.602,24.63z"/>
	<path fill-rule="evenodd" clip-rule="evenodd" fill="#424243" d="M90.681,26.186c0.719,0.115,1.447,0.232,2.179,0.352
		c-0.236,1.095-1.272,2.072-2.505,2.349c-0.83,0.184-1.669,0.184-2.498-0.022c-1.444-0.353-2.311-1.305-2.683-2.72
		c-0.244-0.97-0.234-1.947,0.015-2.914c0.483-1.899,2.175-3.072,4.139-2.876c2.179,0.213,3.477,1.555,3.651,3.78
		c0.031,0.373,0.039,0.744,0.059,1.162c-1.919,0-3.793,0-5.66,0c-0.068,0.934,0.477,1.765,1.27,1.989
		C89.564,27.553,90.126,27.254,90.681,26.186z M90.758,23.933c-0.08-1.237-0.773-1.975-1.762-1.905
		c-0.998,0.067-1.621,0.818-1.573,1.905C88.523,23.933,89.622,23.933,90.758,23.933z"/>
	<path fill-rule="evenodd" clip-rule="evenodd" fill="#424243" d="M110.419,20.528c0.778,0,1.504,0,2.261,0c0,2.757,0,5.508,0,8.279
		c-0.688,0-1.369,0-2.086,0c0-0.38,0-0.74,0-1.199c-0.613,0.747-1.311,1.183-2.16,1.337c-0.692,0.124-1.368,0.085-2.024-0.204
		c-0.859-0.38-1.405-1.045-1.428-1.964c-0.057-2.071-0.02-4.146-0.02-6.24c0.704,0,1.428,0,2.2,0
		c0.007,0.141,0.018,0.293,0.018,0.439c0.008,1.543,0.02,3.084,0.025,4.627c0,0.087,0.006,0.167,0.012,0.255
		c0.055,0.965,0.454,1.424,1.273,1.454c0.979,0.048,1.76-0.514,1.837-1.399c0.072-0.922,0.072-1.849,0.092-2.771
		C110.431,22.283,110.419,21.429,110.419,20.528z"/>
	<path fill-rule="evenodd" clip-rule="evenodd" fill="#414142" d="M102.634,28.81c-0.746,0-1.477,0-2.25,0c0-0.16,0-0.312,0-0.458
		c-0.017-1.625-0.008-3.255-0.063-4.879c-0.028-0.947-0.418-1.352-1.203-1.442c-0.842-0.091-1.637,0.401-1.838,1.207
		c-0.109,0.443-0.155,0.915-0.161,1.372c-0.021,1.384-0.009,2.773-0.009,4.184c-0.759,0-1.49,0-2.25,0c0-2.741,0-5.481,0-8.252
		c0.673,0,1.352,0,2.063,0c0,0.362,0,0.719,0,1.075c0.036,0.027,0.071,0.052,0.108,0.078c0.098-0.122,0.183-0.261,0.297-0.368
		c1.026-0.997,2.613-1.268,3.899-0.687c0.798,0.361,1.28,0.977,1.344,1.838c0.083,1.031,0.078,2.073,0.088,3.108
		c0.019,1.038,0.003,2.073,0,3.111C102.66,28.723,102.65,28.745,102.634,28.81z"/>
	<path fill-rule="evenodd" clip-rule="evenodd" fill="#424243" d="M24.375,26.877c0.205,0.006,0.41,0.015,0.616,0.015
		c1.299,0,2.604,0,3.935,0c0,0.634,0,1.255,0,1.901c-2.522,0-5.055,0-7.635,0c0-0.526-0.016-1.053,0.011-1.579
		c0.007-0.135,0.139-0.267,0.24-0.378c1.297-1.436,2.599-2.865,3.9-4.296c0.044-0.049,0.083-0.099,0.159-0.194
		c-1.347,0-2.641,0-3.963,0c0-0.612,0-1.205,0-1.813c2.349,0,4.684,0,7.053,0c0,0.498,0.019,0.976-0.01,1.448
		c-0.006,0.13-0.125,0.267-0.223,0.376c-1.31,1.444-2.623,2.885-3.933,4.325c-0.054,0.062-0.095,0.131-0.139,0.201
		c-0.015,0.018-0.026,0.032-0.038,0.049c0.011-0.002,0.021-0.002,0.032-0.002C24.377,26.911,24.376,26.896,24.375,26.877z"/>
	<path fill-rule="evenodd" clip-rule="evenodd" fill="#414142" d="M56.537,28.808c-0.762,0-1.487,0-2.246,0c0-2.747,0-5.496,0-8.275
		c0.682,0,1.357,0,2.066,0c0,0.347,0,0.675,0,1.003c0.914-1.342,2.071-1.489,3.474-0.784c-0.237,0.632-0.47,1.257-0.705,1.89
		c-0.205-0.086-0.383-0.171-0.565-0.231c-0.818-0.271-1.529,0.044-1.75,0.868c-0.159,0.591-0.227,1.208-0.251,1.819
		c-0.043,1.094-0.021,2.188-0.022,3.281C56.537,28.511,56.537,28.649,56.537,28.808z"/>
	<path fill-rule="evenodd" clip-rule="evenodd" fill="none" d="M88.202,9.112c0.178-1.556,0.602-2.949,1.83-3.955
		c0.199-0.16,0.464-0.275,0.715-0.32c0.646-0.112,1.048,0.213,1.146,0.863c0.11,0.74-0.13,1.382-0.564,1.961
		C90.555,8.683,89.536,9.168,88.202,9.112z"/>
	<polygon fill-rule="evenodd" clip-rule="evenodd" fill="none" points="102.621,4.792 102.618,4.766 102.637,4.77 	"/>
	<path fill-rule="evenodd" clip-rule="evenodd" fill="none" d="M35.02-4.829c-0.672,4.541,0.202,8.715,2.83,12.491
		c0.353,0.503,0.793,0.945,1.173,1.429c0.082,0.104,0.149,0.315,0.098,0.411c-1.196,2.196-2.794,4-5.146,4.99
		c-3.813,1.614-7.727-0.461-8.362-4.584C24.8,4.638,26.479,0.184,30.548-3.307C31.843-4.418,33.388-4.884,35.02-4.829z"/>
	<path fill-rule="evenodd" clip-rule="evenodd" fill="none" d="M40.733,5.447c-0.253-0.302-0.466-0.508-0.611-0.75
		c-1.161-1.941-1.771-4.031-1.688-6.305c0.016-0.418,0.102-0.864,0.525-1.021c0.459-0.168,0.961-0.041,1.248,0.365
		c0.335,0.469,0.678,0.985,0.81,1.529c0.437,1.822,0.431,3.66-0.053,5.48C40.913,4.947,40.837,5.138,40.733,5.447z"/>
	<path fill-rule="evenodd" clip-rule="evenodd" fill="none" d="M50.308,24.6c-0.091,0.53-0.123,0.98-0.248,1.401
		c-0.217,0.715-0.708,1.173-1.476,1.247c-0.754,0.074-1.374-0.235-1.721-0.89c-0.563-1.058-0.595-2.183-0.105-3.28
		c0.306-0.682,0.9-1.01,1.66-0.994c0.739,0.011,1.269,0.394,1.534,1.049C50.152,23.611,50.203,24.152,50.308,24.6z"/>
	<path fill-rule="evenodd" clip-rule="evenodd" fill="none" d="M35.139,24.856c0,0.468,0.057,0.911-0.009,1.329
		c-0.158,1.008-1.616,1.62-2.474,1.068c-0.357-0.231-0.554-0.565-0.517-0.989c0.037-0.424,0.301-0.703,0.693-0.816
		C33.593,25.238,34.369,25.053,35.139,24.856z"/>
	<path fill-rule="evenodd" clip-rule="evenodd" fill="none" d="M62.602,24.63c0.094-0.422,0.131-0.86,0.289-1.261
		c0.323-0.796,0.964-1.224,1.83-1.238c0.869-0.01,1.518,0.4,1.853,1.198c0.368,0.875,0.366,1.784,0.015,2.662
		c-0.35,0.869-1.237,1.353-2.137,1.207c-0.961-0.147-1.649-0.908-1.766-1.97c-0.016-0.193-0.016-0.394-0.031-0.588
		C62.638,24.639,62.622,24.636,62.602,24.63z"/>
	<path fill-rule="evenodd" clip-rule="evenodd" fill="none" d="M90.758,23.933c-1.136,0-2.234,0-3.335,0
		c-0.048-1.087,0.575-1.838,1.573-1.905C89.984,21.958,90.678,22.695,90.758,23.933z"/>
	<path fill-rule="evenodd" clip-rule="evenodd" fill="none" d="M24.375,26.877c0.002,0.02,0.003,0.034,0.006,0.053
		c-0.011,0-0.021,0-0.032,0.002c0.012-0.017,0.023-0.031,0.038-0.049L24.375,26.877z"/>
</g>
</svg>
